HIERARCHY
ROOT Hips
{
	OFFSET 0.00 0.00 0.00
	CHANNELS 6 Xposition Yposition Zposition Xrotation Yrotation Zrotation
	JOINT Spine
	{
		OFFSET 0.00000 3.24121 0.00000
		CHANNELS 3 Xrotation Yrotation Zrotation
		JOINT Head
		{
			OFFSET 0.00000 18.38296 0.00000
			CHANNELS 3 Xrotation Yrotation Zrotation
			End Site
			{
				OFFSET 0.00000 4.52755 0.00000
			}
		}
		JOINT LeftShoulder
		{
			OFFSET 0.00000 12.82826 0.00000
			CHANNELS 3 Xrotation Yrotation Zrotation
			JOINT LeftArm
			{
				OFFSET 7.74805 0.00000 0.00000
				CHANNELS 3 Xrotation Yrotation Zrotation
				JOINT LeftForeArm
				{
					OFFSET 10.63561 0.00000 0.00000
					CHANNELS 3 Yrotation Zrotation Xrotation
					JOINT LeftHand
					{
						OFFSET 8.34675 0.00000 0.00000
						CHANNELS 3 Xrotation Yrotation Zrotation
						JOINT LeftHandThumb1
						{
							OFFSET 0.00000 0.00000 0.00000
							CHANNELS 3 Xrotation Zrotation Yrotation
							End Site
							{
								OFFSET 0.00000 0.00000 3.93700
							}
						}
						End Site
						{
							OFFSET 3.93700 0.00000 0.00000
						}
					}
				}
			}
		}
		JOINT RightShoulder
		{
			OFFSET 0.00000 12.82826 0.00000
			CHANNELS 3 Xrotation Yrotation Zrotation
			JOINT RightArm
			{
				OFFSET -7.74805 0.00000 0.00000
				CHANNELS 3 Xrotation Yrotation Zrotation
				JOINT RightForeArm
				{
					OFFSET -10.63561 0.00000 0.00000
					CHANNELS 3 Yrotation Zrotation Xrotation
					JOINT RightHand
					{
						OFFSET -8.34675 0.00000 0.00000
						CHANNELS 3 Xrotation Yrotation Zrotation
						JOINT RightHandThumb1
						{
							OFFSET 0.00000 0.00000 0.00000
							CHANNELS 3 Xrotation Zrotation Yrotation
							End Site
							{
								OFFSET 0.00000 0.00000 3.93700
							}
						}
						End Site
						{
							OFFSET -3.93700 0.00000 0.00000
						}
					}
				}
			}
		}
	}
	JOINT LeftUpLeg
	{
		OFFSET 3.43402 0.00000 0.00000
		CHANNELS 3 Xrotation Yrotation Zrotation
		JOINT LeftLeg
		{
			OFFSET 0.00000 -15.71302 0.00000
			CHANNELS 3 Xrotation Yrotation Zrotation
			JOINT LeftFoot
			{
				OFFSET 0.00000 -14.43512 0.00000
				CHANNELS 3 Xrotation Yrotation Zrotation
				JOINT LeftToeBase
				{
					OFFSET 0.00000 -1.27828 4.77061
					CHANNELS 3 Xrotation Yrotation Zrotation
					End Site
					{
						OFFSET 0.00000 0.00000 2.95275
					}
				}
			}
		}
	}
	JOINT RightUpLeg
	{
		OFFSET -3.43402 0.00000 0.00000
		CHANNELS 3 Xrotation Yrotation Zrotation
		JOINT RightLeg
		{
			OFFSET 0.00000 -15.71302 0.00000
			CHANNELS 3 Xrotation Yrotation Zrotation
			JOINT RightFoot
			{
				OFFSET 0.00000 -14.43512 0.00000
				CHANNELS 3 Xrotation Yrotation Zrotation
				JOINT RightToeBase
				{
					OFFSET 0.00000 -1.27828 4.77061
					CHANNELS 3 Xrotation Yrotation Zrotation
					End Site
					{
						OFFSET 0.00000 0.00000 2.95275
					}
				}
			}
		}
	}
}
MOTION
Frames: 9
Frame Time: 0.008333
 -5.6062 31.7569 2.4284 72.3718 -21.2194 0.7325 -40.7071 -11.3974 1.1309 -25.8984 6.9008 23.4149 29.5591 33.9867 20.9917 -66.0305 28.5241 -38.5846 -93.5296 -0.0000 19.3698 16.8651 -24.9441 35.7100 33.1476 -0.0000 26.2537 57.6208 -30.9405 9.4045 -35.3429 -14.7131 81.7827 -7.8207 -0.0000 -92.9981 -5.2229 16.4202 17.9198 32.8623 0.0000 -24.3270 -85.9710 -16.3751 3.8772 36.7392 0.0000 -0.0000 -15.2433 5.1825 14.0560 -2.4658 -0.0000 -0.0000 -10.2008 26.4725 -19.2635 123.4489 0.0000 0.0000 40.3351 14.8516 -22.2287 32.3330 -0.0000 -0.0000
 -5.7212 31.7046 2.3945 72.1696 -20.6443 0.9156 -40.3643 -11.6212 0.4905 -26.5722 6.6158 23.1413 30.5648 34.0214 20.5658 -67.8459 30.2435 -38.1092 -93.6687 -0.0000 19.0220 16.9329 -25.4755 35.2915 33.1476 -0.0000 26.2537 57.7779 -30.9050 10.1600 -35.4081 -14.6078 82.7482 -7.9585 -0.0000 -93.5855 -5.1940 16.2895 17.9567 32.8623 0.0000 -24.3270 -85.9804 -16.0681 3.3932 36.7945 -0.0000 0.0000 -15.4593 5.2737 14.7432 -2.7329 -0.0000 -0.0000 -11.5341 25.6893 -18.3994 124.7110 -0.0000 0.0000 40.6257 15.4450 -22.0020 32.1838 -0.0000 0.0000
 -5.8326 31.6691 2.3721 72.1031 -20.1196 1.0242 -40.1927 -11.8697 0.0689 -27.0260 6.4407 22.6367 31.8627 34.0653 19.9944 -69.6700 31.7645 -37.7286 -93.6810 -0.0000 19.1603 16.9620 -25.2054 35.6104 33.1476 -0.0000 26.2537 58.0317 -31.0730 10.9020 -35.3720 -14.3880 83.8213 -7.9729 -0.0000 -94.5605 -5.1581 16.3710 17.7587 32.8623 0.0000 -24.3270 -85.8733 -15.9771 2.9926 36.4863 0.0000 0.0000 -15.7262 5.3885 15.6083 -2.6958 -0.0000 0.0000 -13.0695 24.7571 -17.3699 125.9185 0.0000 0.0000 40.8873 15.9046 -21.7377 31.6863 0.0000 0.0000
 -5.9262 31.6535 2.3543 72.1629 -19.5941 1.0797 -40.1580 -12.5189 -0.1796 -27.3555 6.6969 22.0908 32.8323 34.2016 19.3879 -70.9812 33.1107 -37.4136 -93.6258 -0.0000 19.1036 17.0069 -25.2471 35.6445 33.1476 -0.0000 26.2537 58.1278 -31.1307 11.2141 -35.2679 -14.3665 84.8894 -8.0101 -0.0000 -95.4916 -5.0580 16.2460 17.5560 32.8623 0.0000 -24.3270 -85.7323 -16.2267 2.5611 35.8964 -0.0000 0.0000 -15.8867 5.6988 16.3946 -2.6585 -0.0000 -0.0000 -14.7140 23.7158 -16.3060 127.0299 0.0000 -0.0000 41.0562 16.4311 -21.5060 31.4309 0.0000 0.0000
 -6.0031 31.6624 2.3364 72.2884 -19.1530 1.1340 -40.1772 -13.2857 -0.3031 -27.5983 7.1660 21.5535 33.4486 34.4471 18.7958 -71.7629 34.0920 -37.3303 -93.5222 -0.0000 19.4585 16.9661 -24.9872 35.8382 33.1476 -0.0000 26.2537 58.0288 -31.1170 11.2836 -35.0691 -14.4943 85.8579 -8.1037 -0.0000 -95.9537 -4.9511 16.0012 17.4460 32.8623 0.0000 -24.3270 -85.5487 -16.5387 2.2207 35.1202 -0.0000 -0.0000 -15.8859 6.0310 17.1267 -2.4839 -0.0000 -0.0000 -16.4554 22.6058 -15.2933 128.0901 -0.0000 -0.0000 41.1373 16.7197 -21.3824 31.2590 -0.0000 -0.0000
 -6.0725 31.6946 2.3242 72.5244 -18.7187 1.2112 -40.3169 -14.0569 -0.3528 -27.8496 7.8347 20.9541 33.4331 34.4742 18.5619 -71.7340 34.9542 -37.3021 -93.3631 -0.0000 19.9853 16.9110 -24.3947 36.3576 33.1476 -0.0000 26.2537 57.8116 -31.0887 11.2292 -34.7124 -14.4247 86.7618 -8.3006 -0.0000 -96.5502 -4.8497 15.1188 18.0198 32.8623 0.0000 -24.3270 -85.3882 -16.9416 1.9080 34.1867 0.0000 -0.0000 -15.6960 6.3757 17.6812 -2.3776 -0.0000 0.0000 -18.2447 21.4089 -14.3305 129.0837 0.0000 0.0000 40.8918 16.7495 -21.0378 31.2907 -0.0000 -0.0000
 -6.1242 31.7524 2.3075 72.9558 -18.3392 1.4145 -40.6353 -14.6236 -0.3717 -28.0442 8.4351 20.2803 33.1647 34.4383 18.4397 -71.4099 35.5554 -37.4559 -93.1373 -0.0000 20.6096 16.8273 -23.8363 36.8102 33.1476 -0.0000 26.2537 57.7251 -31.0630 11.1982 -34.2863 -14.5638 87.6740 -8.2469 -0.0000 -97.0628 -4.6132 14.5409 17.8165 32.8623 0.0000 -24.3270 -85.4109 -17.2763 1.6517 33.2235 -0.0000 -0.0000 -15.2471 6.7487 17.8730 -2.3684 0.0000 0.0000 -20.1488 20.1972 -13.5472 130.0515 0.0000 -0.0000 40.6661 16.6996 -20.8085 31.0207 0.0000 0.0000
 -6.1723 31.8276 2.2872 73.2080 -17.9029 1.4818 -40.7443 -15.1905 -0.3622 -28.2651 8.9450 19.6368 32.6301 34.3762 18.5220 -70.6805 36.0297 -37.8475 -92.8687 -0.0000 21.2562 16.8156 -23.3898 37.2811 33.1476 -0.0000 26.2537 57.6677 -30.9693 11.2607 -34.0031 -14.6539 88.4394 -8.5230 -0.0000 -97.8438 -4.3865 13.7933 17.8351 32.8623 0.0000 -24.3270 -85.3033 -17.6039 1.3952 32.2309 -0.0000 0.0000 -14.5845 7.0136 17.7167 -2.3389 -0.0000 -0.0000 -21.7521 18.8848 -12.8355 130.9188 0.0000 0.0000 40.4515 16.8262 -20.6596 30.8298 0.0000 0.0000
 -6.2182 31.9131 2.2640 73.2802 -17.5643 1.4457 -40.6322 -15.6199 -0.2646 -28.5100 9.3694 19.0953 32.1506 34.3122 18.6432 -69.8980 36.4584 -38.3605 -92.6675 -0.0000 21.5498 16.7711 -23.2602 37.3486 33.1476 -0.0000 26.2537 57.6929 -30.7840 11.3912 -33.8127 -14.5761 89.1307 -8.8121 -0.0000 -98.5164 -4.1239 13.1351 17.6029 32.8623 0.0000 -24.3270 -85.0426 -17.8286 1.2947 31.2994 -0.0000 0.0000 -13.8167 7.1416 17.4197 -2.4531 0.0000 -0.0000 -23.0666 17.6211 -12.1397 131.7011 0.0000 0.0000 40.2434 16.9808 -20.4785 30.6148 -0.0000 -0.0000
